<mxfile host="app.diagrams.net" modified="2020-11-02T08:54:35.330Z" agent="5.0 (Windows NT 10.0; Win64; x64) AppleWebKit/537.36 (KHTML, like Gecko) Chrome/86.0.4240.111 Safari/537.36" etag="yGK7F2wlZJgPG3YsL_sQ" version="13.8.8" type="github" pages="2">
  <diagram id="tumvjpiRp1YmuoPPvX5n" name="no-sql database design">
    <mxGraphModel dx="2249" dy="772" grid="1" gridSize="10" guides="1" tooltips="1" connect="1" arrows="1" fold="1" page="1" pageScale="1" pageWidth="827" pageHeight="1169" math="0" shadow="0">
      <root>
        <mxCell id="0" />
        <mxCell id="1" parent="0" />
        <mxCell id="mQpEe6tUVRKGyS8-SNBs-10" value="" style="rounded=0;whiteSpace=wrap;html=1;movable=0;resizable=0;rotatable=0;deletable=0;editable=0;connectable=0;" parent="1" vertex="1">
          <mxGeometry x="420" y="130" width="260" height="550" as="geometry" />
        </mxCell>
        <mxCell id="mQpEe6tUVRKGyS8-SNBs-4" value="" style="rounded=0;whiteSpace=wrap;html=1;" parent="1" vertex="1">
          <mxGeometry x="30" y="140" width="260" height="550" as="geometry" />
        </mxCell>
        <mxCell id="mQpEe6tUVRKGyS8-SNBs-5" value="people box" style="rounded=0;whiteSpace=wrap;html=1;" parent="1" vertex="1">
          <mxGeometry x="30" y="140" width="80" height="40" as="geometry" />
        </mxCell>
        <mxCell id="mQpEe6tUVRKGyS8-SNBs-7" value="datablock box" style="rounded=0;whiteSpace=wrap;html=1;" parent="1" vertex="1">
          <mxGeometry x="420" y="130" width="100" height="40" as="geometry" />
        </mxCell>
        <mxCell id="mQpEe6tUVRKGyS8-SNBs-8" value="Datablock" style="swimlane;childLayout=stackLayout;horizontal=1;startSize=30;horizontalStack=0;rounded=1;fontSize=14;fontStyle=0;strokeWidth=2;resizeParent=0;resizeLast=1;shadow=0;dashed=0;align=center;" parent="1" vertex="1">
          <mxGeometry x="470" y="190" width="160" height="100" as="geometry" />
        </mxCell>
        <mxCell id="mQpEe6tUVRKGyS8-SNBs-9" value="+name String&#xa;+colour Color&#xa;+attributes Map" style="align=left;strokeColor=none;fillColor=none;spacingLeft=4;fontSize=12;verticalAlign=top;resizable=0;rotatable=0;part=1;" parent="mQpEe6tUVRKGyS8-SNBs-8" vertex="1">
          <mxGeometry y="30" width="160" height="70" as="geometry" />
        </mxCell>
        <mxCell id="mQpEe6tUVRKGyS8-SNBs-1" value="Person key = :id" style="swimlane;childLayout=stackLayout;horizontal=1;startSize=30;horizontalStack=0;rounded=1;fontSize=14;fontStyle=0;strokeWidth=2;resizeParent=0;resizeLast=1;shadow=0;dashed=0;align=center;" parent="1" vertex="1">
          <mxGeometry x="80" y="190" width="160" height="90" as="geometry" />
        </mxCell>
        <mxCell id="mQpEe6tUVRKGyS8-SNBs-2" value="+first_name&#xa;+last_name&#xa;+dbID" style="align=left;strokeColor=none;fillColor=none;spacingLeft=4;fontSize=12;verticalAlign=top;resizable=0;rotatable=0;part=1;" parent="mQpEe6tUVRKGyS8-SNBs-1" vertex="1">
          <mxGeometry y="30" width="160" height="60" as="geometry" />
        </mxCell>
        <mxCell id="mQpEe6tUVRKGyS8-SNBs-12" value="DataComponent" style="swimlane;childLayout=stackLayout;horizontal=1;startSize=30;horizontalStack=0;rounded=1;fontSize=14;fontStyle=0;strokeWidth=2;resizeParent=0;resizeLast=1;shadow=0;dashed=0;align=center;" parent="1" vertex="1">
          <mxGeometry x="470" y="330" width="160" height="90" as="geometry">
            <mxRectangle x="470" y="330" width="130" height="30" as="alternateBounds" />
          </mxGeometry>
        </mxCell>
        <mxCell id="mQpEe6tUVRKGyS8-SNBs-13" value="+key&#xa;+value" style="align=left;strokeColor=none;fillColor=none;spacingLeft=4;fontSize=12;verticalAlign=top;resizable=0;rotatable=0;part=1;" parent="mQpEe6tUVRKGyS8-SNBs-12" vertex="1">
          <mxGeometry y="30" width="160" height="60" as="geometry" />
        </mxCell>
        <mxCell id="AghAwRDaUWX8fnEZP51t-1" value="" style="edgeStyle=entityRelationEdgeStyle;fontSize=12;html=1;endArrow=ERoneToMany;entryX=0;entryY=0.5;entryDx=0;entryDy=0;exitX=1;exitY=0.75;exitDx=0;exitDy=0;" parent="1" source="mQpEe6tUVRKGyS8-SNBs-2" target="mQpEe6tUVRKGyS8-SNBs-8" edge="1">
          <mxGeometry width="100" height="100" relative="1" as="geometry">
            <mxPoint x="290" y="410" as="sourcePoint" />
            <mxPoint x="390" y="310" as="targetPoint" />
          </mxGeometry>
        </mxCell>
        <mxCell id="AghAwRDaUWX8fnEZP51t-2" value="" style="edgeStyle=entityRelationEdgeStyle;fontSize=12;html=1;endArrow=ERoneToMany;exitX=1;exitY=0.5;exitDx=0;exitDy=0;" parent="1" source="mQpEe6tUVRKGyS8-SNBs-9" target="mQpEe6tUVRKGyS8-SNBs-13" edge="1">
          <mxGeometry width="100" height="100" relative="1" as="geometry">
            <mxPoint x="240" y="420.0000000000001" as="sourcePoint" />
            <mxPoint x="750" y="410" as="targetPoint" />
          </mxGeometry>
        </mxCell>
        <mxCell id="AghAwRDaUWX8fnEZP51t-9" value="" style="rounded=0;whiteSpace=wrap;html=1;" parent="1" vertex="1">
          <mxGeometry x="-290" y="140" width="260" height="550" as="geometry" />
        </mxCell>
        <mxCell id="AghAwRDaUWX8fnEZP51t-10" value="settings box" style="rounded=0;whiteSpace=wrap;html=1;" parent="1" vertex="1">
          <mxGeometry x="-290" y="140" width="80" height="40" as="geometry" />
        </mxCell>
      </root>
    </mxGraphModel>
  </diagram>
  <diagram id="lfDsm-KZ88zXppBn9s3G" name="mobile storyboard">
    <mxGraphModel dx="1186" dy="853" grid="1" gridSize="10" guides="1" tooltips="1" connect="1" arrows="1" fold="1" page="1" pageScale="1" pageWidth="827" pageHeight="1169" math="0" shadow="0">
      <root>
        <mxCell id="6_1UU9zdQ9Lidq-6BpJZ-0" />
        <mxCell id="6_1UU9zdQ9Lidq-6BpJZ-1" parent="6_1UU9zdQ9Lidq-6BpJZ-0" />
        <mxCell id="6_1UU9zdQ9Lidq-6BpJZ-9" value="" style="shape=mxgraph.mockup.containers.marginRect;rectMarginTop=10;strokeColor=#666666;strokeWidth=1;dashed=0;rounded=1;arcSize=5;recursiveResize=0;movable=0;resizable=0;rotatable=0;deletable=0;editable=0;connectable=0;" vertex="1" parent="6_1UU9zdQ9Lidq-6BpJZ-1">
          <mxGeometry x="100" y="40" width="230" height="410" as="geometry" />
        </mxCell>
        <mxCell id="6_1UU9zdQ9Lidq-6BpJZ-10" value="Index screen" style="shape=rect;strokeColor=none;fillColor=#008cff;strokeWidth=1;dashed=0;rounded=1;arcSize=20;fontColor=#ffffff;fontSize=17;spacing=2;spacingTop=-2;align=left;autosize=1;spacingLeft=4;resizeWidth=0;resizeHeight=0;perimeter=none;" vertex="1" parent="6_1UU9zdQ9Lidq-6BpJZ-9">
          <mxGeometry x="5" width="120" height="30" as="geometry" />
        </mxCell>
        <mxCell id="6_1UU9zdQ9Lidq-6BpJZ-4" value="" style="strokeWidth=1;shadow=0;dashed=0;align=center;html=1;shape=mxgraph.mockup.containers.rrect;rSize=0;strokeColor=#666666;" vertex="1" parent="6_1UU9zdQ9Lidq-6BpJZ-9">
          <mxGeometry x="17.130000000000003" y="50" width="195.74" height="345" as="geometry" />
        </mxCell>
        <mxCell id="6_1UU9zdQ9Lidq-6BpJZ-5" value="Group 1" style="strokeColor=inherit;fillColor=inherit;gradientColor=inherit;strokeWidth=1;shadow=0;dashed=0;align=center;html=1;shape=mxgraph.mockup.containers.rrect;rSize=0;fontSize=17;fontColor=#666666;fontStyle=1;resizeWidth=1;" vertex="1" parent="6_1UU9zdQ9Lidq-6BpJZ-4">
          <mxGeometry width="195.74000000000004" height="26" relative="1" as="geometry" />
        </mxCell>
        <mxCell id="6_1UU9zdQ9Lidq-6BpJZ-6" value="Group 2" style="strokeColor=inherit;fillColor=inherit;gradientColor=inherit;strokeWidth=1;shadow=0;dashed=0;align=center;html=1;shape=mxgraph.mockup.containers.rrect;rSize=0;fontSize=17;fontColor=#666666;fontStyle=1;resizeWidth=1;" vertex="1" parent="6_1UU9zdQ9Lidq-6BpJZ-4">
          <mxGeometry width="195.74000000000004" height="26" relative="1" as="geometry">
            <mxPoint y="26" as="offset" />
          </mxGeometry>
        </mxCell>
        <mxCell id="6_1UU9zdQ9Lidq-6BpJZ-7" value="Group 3" style="strokeWidth=1;shadow=0;dashed=0;align=center;html=1;shape=mxgraph.mockup.containers.rrect;rSize=0;fontSize=17;fontColor=#ffffff;fontStyle=1;fillColor=#008cff;strokeColor=#008cff;resizeWidth=1;" vertex="1" parent="6_1UU9zdQ9Lidq-6BpJZ-4">
          <mxGeometry width="195.74000000000004" height="26" relative="1" as="geometry">
            <mxPoint y="52" as="offset" />
          </mxGeometry>
        </mxCell>
        <mxCell id="6_1UU9zdQ9Lidq-6BpJZ-13" value="" style="html=1;verticalLabelPosition=bottom;align=center;labelBackgroundColor=#ffffff;verticalAlign=top;strokeWidth=2;strokeColor=#0080F0;shadow=0;dashed=0;shape=mxgraph.ios7.icons.add;" vertex="1" parent="6_1UU9zdQ9Lidq-6BpJZ-4">
          <mxGeometry x="162.87" y="310" width="30" height="30" as="geometry" />
        </mxCell>
        <mxCell id="6_1UU9zdQ9Lidq-6BpJZ-21" value="Some default&#xa;dialog&#xa;text." style="strokeWidth=1;shadow=0;dashed=0;align=center;html=1;shape=mxgraph.mockup.containers.rrect;rSize=0;strokeColor=#666666;fontColor=#666666;fontSize=17;verticalAlign=top;whiteSpace=wrap;fillColor=#ffffff;spacingTop=32;" vertex="1" parent="6_1UU9zdQ9Lidq-6BpJZ-1">
          <mxGeometry x="370" y="475" width="140" height="220" as="geometry" />
        </mxCell>
        <mxCell id="6_1UU9zdQ9Lidq-6BpJZ-22" value="Add person" style="strokeWidth=1;shadow=0;dashed=0;align=center;html=1;shape=mxgraph.mockup.containers.rrect;rSize=0;fontSize=17;fontColor=#666666;strokeColor=#666666;align=left;spacingLeft=8;fillColor=none;resizeWidth=1;" vertex="1" parent="6_1UU9zdQ9Lidq-6BpJZ-21">
          <mxGeometry width="140" height="30" relative="1" as="geometry" />
        </mxCell>
        <mxCell id="6_1UU9zdQ9Lidq-6BpJZ-24" value="Cancel" style="strokeWidth=1;shadow=0;dashed=0;align=center;html=1;shape=mxgraph.mockup.containers.rrect;rSize=0;fontSize=16;fontColor=#666666;strokeColor=#c4c4c4;whiteSpace=wrap;fillColor=none;" vertex="1" parent="6_1UU9zdQ9Lidq-6BpJZ-21">
          <mxGeometry x="0.25" y="1" width="90" height="25" relative="1" as="geometry">
            <mxPoint x="-10" y="-33" as="offset" />
          </mxGeometry>
        </mxCell>
        <mxCell id="6_1UU9zdQ9Lidq-6BpJZ-26" style="edgeStyle=orthogonalEdgeStyle;rounded=0;orthogonalLoop=1;jettySize=auto;html=1;entryX=0.007;entryY=0.559;entryDx=0;entryDy=0;entryPerimeter=0;" edge="1" parent="6_1UU9zdQ9Lidq-6BpJZ-1" source="6_1UU9zdQ9Lidq-6BpJZ-13" target="6_1UU9zdQ9Lidq-6BpJZ-21">
          <mxGeometry relative="1" as="geometry" />
        </mxCell>
        <mxCell id="6_1UU9zdQ9Lidq-6BpJZ-27" value="" style="shape=mxgraph.mockup.containers.marginRect;rectMarginTop=10;strokeColor=#666666;strokeWidth=1;dashed=0;rounded=1;arcSize=5;recursiveResize=0;movable=1;resizable=1;rotatable=1;deletable=1;editable=1;connectable=1;" vertex="1" parent="6_1UU9zdQ9Lidq-6BpJZ-1">
          <mxGeometry x="480" y="30" width="230" height="420" as="geometry" />
        </mxCell>
        <mxCell id="6_1UU9zdQ9Lidq-6BpJZ-28" value="ProfileView" style="shape=rect;strokeColor=none;fillColor=#008cff;strokeWidth=1;dashed=0;rounded=1;arcSize=20;fontColor=#ffffff;fontSize=17;spacing=2;spacingTop=-2;align=left;autosize=1;spacingLeft=4;resizeWidth=0;resizeHeight=0;perimeter=none;" vertex="1" parent="6_1UU9zdQ9Lidq-6BpJZ-27">
          <mxGeometry x="5" width="110" height="30" as="geometry" />
        </mxCell>
        <mxCell id="6_1UU9zdQ9Lidq-6BpJZ-35" value="Profile display" style="rounded=1;whiteSpace=wrap;html=1;" vertex="1" parent="6_1UU9zdQ9Lidq-6BpJZ-27">
          <mxGeometry x="20" y="60" width="190" height="110" as="geometry" />
        </mxCell>
        <mxCell id="6_1UU9zdQ9Lidq-6BpJZ-36" value="Profile display" style="rounded=1;whiteSpace=wrap;html=1;" vertex="1" parent="6_1UU9zdQ9Lidq-6BpJZ-27">
          <mxGeometry x="20" y="180" width="190" height="110" as="geometry" />
        </mxCell>
        <mxCell id="6_1UU9zdQ9Lidq-6BpJZ-37" value="Profile display" style="rounded=1;whiteSpace=wrap;html=1;" vertex="1" parent="6_1UU9zdQ9Lidq-6BpJZ-27">
          <mxGeometry x="20" y="300" width="190" height="110" as="geometry" />
        </mxCell>
        <mxCell id="6_1UU9zdQ9Lidq-6BpJZ-34" style="edgeStyle=orthogonalEdgeStyle;rounded=0;orthogonalLoop=1;jettySize=auto;html=1;entryX=0;entryY=0.28;entryDx=0;entryDy=0;entryPerimeter=0;" edge="1" parent="6_1UU9zdQ9Lidq-6BpJZ-1" source="6_1UU9zdQ9Lidq-6BpJZ-7" target="6_1UU9zdQ9Lidq-6BpJZ-27">
          <mxGeometry relative="1" as="geometry" />
        </mxCell>
      </root>
    </mxGraphModel>
  </diagram>
</mxfile>
